<?xml version="1.0" standalone="no"?>
<!DOCTYPE svg PUBLIC "-//W3C//DTD SVG 20010904//EN"
 "http://www.w3.org/TR/2001/REC-SVG-20010904/DTD/svg10.dtd">
<svg version="1.0" xmlns="http://www.w3.org/2000/svg"
 width="512.000000pt" height="512.000000pt" viewBox="0 0 512.000000 512.000000"
 preserveAspectRatio="xMidYMid meet">
<metadata>
Created by potrace 1.11, written by Peter Selinger 2001-2013
</metadata>
<g transform="translate(0.000000,512.000000) scale(0.100000,-0.100000)"
fill="#000000" stroke="none">
<path d="M1860 4704 c-382 -190 -702 -349 -710 -354 -22 -13 -131 -67 -160
-79 -14 -6 -32 -15 -40 -21 -8 -5 -95 -49 -192 -97 l-178 -87 88 -46 c49 -25
100 -50 115 -57 24 -11 84 17 897 422 479 239 875 435 880 435 6 0 402 -196
880 -435 l870 -435 110 58 110 57 -983 492 c-540 271 -984 492 -987 492 -3 0
-318 -156 -700 -345z"/>
<path d="M3555 3971 c-271 -142 -359 -189 -445 -234 -52 -27 -135 -71 -185
-97 -49 -26 -148 -78 -220 -115 -71 -37 -135 -71 -141 -76 -5 -4 -21 -2 -35 5
-13 7 -91 47 -174 90 -82 43 -195 102 -250 131 -55 29 -167 87 -250 130 -82
43 -205 107 -272 142 l-122 64 -172 -87 c-140 -70 -169 -89 -158 -99 8 -7 55
-34 104 -60 81 -43 801 -435 900 -490 22 -12 78 -42 125 -68 47 -25 134 -73
195 -106 60 -32 112 -56 115 -52 4 7 207 120 410 228 104 56 329 177 530 286
41 23 109 59 150 81 42 23 137 74 213 115 75 41 137 77 137 80 0 3 -64 37
-143 74 -78 37 -158 77 -178 87 -20 11 -38 20 -40 19 -2 0 -44 -22 -94 -48z"/>
<path d="M4805 3897 c-11 -8 -45 -27 -75 -44 -58 -32 -337 -190 -755 -428
-260 -148 -307 -174 -415 -235 -36 -20 -202 -114 -370 -210 -463 -263 -485
-272 -635 -274 -146 -1 -149 0 -505 202 -102 58 -198 113 -215 122 -16 9 -82
46 -145 82 -63 36 -135 76 -160 90 -25 14 -74 42 -110 63 -36 20 -87 50 -115
65 -27 15 -106 60 -173 99 -68 39 -126 71 -128 71 -2 0 -21 11 -42 23 -20 13
-64 39 -97 57 -89 49 -495 279 -532 302 l-33 20 0 -1404 0 -1404 73 -34 c39
-18 171 -82 292 -141 121 -58 267 -129 325 -157 58 -27 188 -90 290 -140 460
-223 712 -344 935 -452 77 -37 141 -63 143 -59 2 4 17 3 35 -3 51 -16 249 -18
309 -3 29 7 60 13 68 13 14 -1 67 24 515 242 105 51 258 125 340 165 83 40
229 111 325 157 96 47 247 120 335 163 88 43 243 118 345 167 102 49 187 91
189 94 5 5 13 2804 9 2804 -2 0 -12 -6 -23 -13z m-2220 -1392 c55 2 116 9 135
15 19 5 38 10 42 10 5 0 8 -494 8 -1099 l0 -1098 -57 -19 c-72 -24 -247 -25
-308 -2 l-40 15 -3 1100 -2 1100 62 -13 c38 -8 102 -12 163 -9z"/>
</g>
</svg>
